<svg width="353" height="100" viewBox="0 0 353 100" fill="none" xmlns="http://www.w3.org/2000/svg">
<path d="M38.9544 22.08C39.221 27.7867 39.3544 33.0667 39.3544 37.92C39.3544 47.1467 38.901 55.84 37.9944 64C37.5677 67.68 36.0744 70.7733 33.5144 73.28C31.0077 75.7333 27.7544 77.1467 23.7544 77.52H23.8344C22.8744 77.6267 21.9944 77.68 21.1944 77.68C18.0477 77.68 15.0344 77.1733 12.1544 76.16C9.27438 75.2 6.87438 73.7067 4.95438 71.68C3.08771 69.6533 2.10104 67.1733 1.99438 64.24C1.99438 60.3467 2.04771 54.5067 2.15438 46.72L2.23438 41.52C2.34104 35.8667 2.39438 31.68 2.39438 28.96C2.39438 25.44 2.36771 22.8533 2.31438 21.2H4.31438L9.11438 21.04C11.7277 21.04 14.021 21.3333 15.9944 21.92C15.781 27.8933 15.6744 32.48 15.6744 35.68C15.6744 43.4133 16.021 51.9733 16.7144 61.36V61.28C17.0344 62.3467 17.5144 63.1733 18.1544 63.76C18.7944 64.2933 19.4877 64.56 20.2344 64.56C21.0877 64.56 21.8877 64.2133 22.6344 63.52C23.381 62.8267 23.8877 61.9467 24.1544 60.88V60.96C24.3677 56.0533 24.5277 48.2933 24.6344 37.68L24.7144 32.56C24.7144 30 24.7677 26.48 24.8744 22L26.5544 21.76C27.301 21.76 28.3144 21.68 29.5944 21.52C31.781 21.3067 33.0877 21.2267 33.5144 21.28C35.8077 21.28 37.4077 21.5467 38.3144 22.08H38.9544ZM62.945 69.28C59.585 61.92 57.3717 56.8267 56.305 54V69.36C56.305 72.6667 56.3317 74.9333 56.385 76.16C54.945 76.5867 53.3717 76.8 51.665 76.8C51.1317 76.8 50.3317 76.7467 49.265 76.64C48.0917 76.5333 47.2383 76.48 46.705 76.48L42.785 76.32V70.32C42.785 66.9067 42.7317 62.0533 42.625 55.76C42.5717 52.6133 42.545 47.84 42.545 41.44C42.545 32.8533 42.785 25.6533 43.265 19.84C44.705 19.4667 46.305 19.28 48.065 19.28C49.2383 19.28 50.6517 19.3867 52.305 19.6C54.0117 19.8133 55.185 20.1333 55.825 20.56C56.5717 21.9467 57.4783 23.8933 58.545 26.4C59.665 28.8533 60.7317 31.3067 61.745 33.76L64.945 41.12C64.8383 37.3867 64.785 32.9867 64.785 27.92C64.785 23.8133 64.8117 20.9867 64.865 19.44C67.0517 19.0133 69.3717 18.8 71.825 18.8C73.905 18.8 76.065 19.04 78.305 19.52V76.24C78.145 76.24 77.825 76.32 77.345 76.48C76.8117 76.6933 75.8783 76.8 74.545 76.8C74.2783 76.8533 72.865 76.7733 70.305 76.56C69.665 76.5067 68.8383 76.4533 67.825 76.4C66.865 76.3467 66.305 76.3467 66.145 76.4L62.945 69.28Z" fill="#BC2726"/>
<path d="M116.709 76.24C115.002 76.6133 113.162 76.8 111.189 76.8C108.842 76.8 106.282 76.5067 103.509 75.92C103.135 74.9067 102.549 72.7733 101.749 69.52C100.949 66.2133 100.309 64.0267 99.8288 62.96L98.2288 62.88L96.8688 62.96C96.6554 63.6 96.3088 65.1733 95.8288 67.68C95.4554 69.76 95.0821 71.4667 94.7088 72.8C94.3354 74.08 93.8021 75.2533 93.1088 76.32C92.5754 76.4267 91.7754 76.48 90.7088 76.48C90.2288 76.48 89.1888 76.4267 87.5888 76.32C82.9488 76.1067 80.3621 76 79.8287 76C79.8287 75.7333 79.8821 75.12 79.9887 74.16C80.0954 73.1467 80.2554 72.0267 80.4688 70.8L82.2288 60.72C83.6154 52.4533 84.9221 45.2533 86.1488 39.12C87.4288 32.9867 89.0821 26.5067 91.1088 19.68C91.8554 19.5733 92.8688 19.52 94.1488 19.52H94.6288C98.0954 19.52 101.482 19.3867 104.789 19.12C105.429 21.6267 106.015 24.1067 106.549 26.56C107.082 28.96 107.562 31.12 107.989 33.04C109.695 40.4533 110.842 45.3867 111.429 47.84L116.709 76.24ZM99.9888 52.72C98.8154 42.0533 98.2554 36.72 98.3088 36.72L98.2288 35.92C98.2288 35.92 98.1754 36.56 98.0688 37.84C97.9088 41.84 97.6688 45.0133 97.3488 47.36L96.6288 52.72H99.9888ZM147.556 26.4C150.063 30.3467 151.716 34.32 152.516 38.32V38.24C152.943 39.5733 153.21 41.3067 153.316 43.44C153.21 45.04 153.156 46.24 153.156 47.04L153.076 48.32C153.076 48.6933 153.023 49.9467 152.916 52.08C152.81 54.2133 152.543 56.32 152.116 58.4C151.103 61.3867 149.69 64.32 147.876 67.2C146.116 70.0267 144.01 72.96 141.556 76C137.076 76.1067 133.396 76.16 130.516 76.16L124.756 76.24L118.516 76.32C117.556 69.3333 117.076 60.5333 117.076 49.92C117.076 45.28 117.103 41.8133 117.156 39.52C117.21 37.44 117.236 33.8667 117.236 28.8C117.236 27.52 117.183 25.6 117.076 23.04L116.996 20.64L117.556 20.56C120.383 19.8133 123.663 19.44 127.396 19.44L129.476 19.52H131.636C132.33 19.5733 133.396 19.6 134.836 19.6C136.276 19.6 137.343 19.5733 138.036 19.52C140.01 20.0533 141.903 21.0133 143.716 22.4C145.53 23.7333 146.97 25.28 148.036 27.04L147.556 26.4ZM140.276 48.56C140.276 47.6 140.17 46.6667 139.956 45.76C139.53 43.52 139.023 41.7067 138.436 40.32C137.85 38.88 136.943 37.9467 135.716 37.52H135.876C134.596 37.4133 133.636 37.36 132.996 37.36C131.93 37.36 131.236 37.4133 130.916 37.52C131.023 39.44 131.076 41.2533 131.076 42.96V45.04L130.996 47.2C130.943 48.4267 130.916 50.2667 130.916 52.72C130.916 55.0667 130.89 56.8533 130.836 58.08C131.636 58.4 132.196 58.56 132.516 58.56H133.556C134.41 58.56 135.023 58.48 135.396 58.32C136.25 58.1067 137.21 57.1467 138.276 55.44C139.61 53.4133 140.276 51.12 140.276 48.56ZM191.19 33.6C191.35 35.2533 191.43 36.9333 191.43 38.64L191.35 40.08V41.52C191.243 43.28 191.19 45.8667 191.19 49.28C191.19 53.0667 191.11 55.9467 190.95 57.92L190.71 60.56C190.443 64.88 189.35 68.56 187.43 71.6C186.63 72.72 185.43 73.7067 183.83 74.56C182.23 75.4133 180.47 76.1067 178.55 76.64C176.577 77.2267 174.257 77.52 171.59 77.52C170.363 77.52 169.51 77.4933 169.03 77.44C166.417 77.2267 164.07 76.6667 161.99 75.76C159.963 74.8 158.47 73.4133 157.51 71.6C156.23 69.2 155.537 66.1867 155.43 62.56L155.27 60C155.217 59.5733 155.19 58.6933 155.19 57.36C154.923 52.9867 154.79 48.8 154.79 44.8C154.79 42.3467 154.87 39.8933 155.03 37.44C155.19 34.7733 155.643 32.1867 156.39 29.68C157.19 27.12 158.39 24.88 159.99 22.96L161.75 22C165.163 20.3467 168.897 19.52 172.95 19.52C175.51 19.52 177.91 19.8667 180.15 20.56C182.443 21.2 184.443 22.16 186.15 23.44C188.017 25.1467 189.243 26.8267 189.83 28.48C190.47 30.1867 190.923 31.8933 191.19 33.6ZM178.79 42.32L178.47 38.16C178.363 36.6667 177.99 35.36 177.35 34.24C176.763 33.0667 175.99 32.24 175.03 31.76C174.603 31.6 174.177 31.52 173.75 31.52C172.47 31.52 171.217 31.9467 169.99 32.8C169.35 33.3333 168.71 34.1067 168.07 35.12C167.483 36.08 167.03 37.0667 166.71 38.08C166.177 40.4267 165.91 43.4133 165.91 47.04C165.91 48.8533 165.937 50.2133 165.99 51.12V51.04C166.203 52.1067 166.363 53.52 166.47 55.28L166.55 56.4C166.763 59.0667 167.057 61.04 167.43 62.32V62.24C167.91 63.3067 168.603 64.1333 169.51 64.72C170.47 65.2533 171.483 65.52 172.55 65.52C173.403 65.52 174.257 65.3333 175.11 64.96C176.017 64.5333 176.79 63.9467 177.43 63.2C177.963 62.5067 178.283 61.92 178.39 61.44C178.55 60.96 178.63 60.2133 178.63 59.2C178.63 58.2933 178.657 57.6267 178.71 57.2L178.79 56.16L178.87 54.64V53.52L178.95 52V48.16L178.79 42.72V42.32ZM232.342 36.8C232.342 37.8133 232.315 38.5333 232.262 38.96C231.889 42 230.715 44.8 228.742 47.36C226.769 49.92 224.315 51.9467 221.382 53.44C218.449 54.88 215.355 55.6 212.102 55.6C211.942 55.6 211.729 55.6267 211.462 55.68C211.195 55.68 210.875 55.6533 210.502 55.6C210.555 56.24 210.555 56.88 210.502 57.52C210.502 58.16 210.502 58.7467 210.502 59.28V75.52L209.622 75.6C208.182 76.0267 205.675 76.24 202.102 76.24C199.435 76.24 196.982 76.1067 194.742 75.84C194.529 70.6667 194.422 61.68 194.422 48.88V39.2C194.422 30.5067 194.342 24.1867 194.182 20.24C198.289 19.0667 202.582 18.48 207.062 18.48C213.942 18.48 219.782 19.9467 224.582 22.88C229.435 25.76 232.022 30.3733 232.342 36.72V36.8ZM216.502 33.2C215.649 32.4533 214.715 31.9733 213.702 31.76C212.689 31.5467 211.649 31.44 210.582 31.44C209.569 31.3867 208.795 31.36 208.262 31.36C208.315 32.2133 208.342 33.6533 208.342 35.68V36.4C208.342 38 208.369 39.3333 208.422 40.4C208.529 41.4133 208.715 42.32 208.982 43.12H210.102C210.475 43.12 211.249 43.12 212.422 43.12C213.649 43.12 214.689 42.96 215.542 42.64C216.449 42.32 217.142 41.7867 217.622 41.04C218.155 40.1333 218.422 39.0933 218.422 37.92C218.422 36.48 217.995 35.1467 217.142 33.92L216.502 33.2ZM267.948 20C268.054 21.8133 268.108 23.52 268.108 25.12C268.108 28.2133 267.921 30.9867 267.548 33.44C265.788 33.12 264.401 32.96 263.388 32.96L259.628 32.88C258.241 32.88 257.548 32.96 257.548 33.12C257.441 33.8667 257.388 35.44 257.388 37.84C257.388 42.5333 257.574 55.1733 257.948 75.76C256.401 76.0267 254.588 76.16 252.508 76.16H250.188C247.521 76.16 245.068 76.3467 242.828 76.72C242.668 76.4533 242.534 75.92 242.428 75.12C242.374 74.2667 242.374 73.4933 242.428 72.8V68.88L242.508 61.68C242.508 51.9733 242.294 42.5067 241.868 33.28C241.281 33.0133 240.454 32.88 239.388 32.88L236.188 32.96C234.374 32.96 233.068 32.8267 232.268 32.56C232.107 32.24 231.974 31.36 231.867 29.92C231.761 28.48 231.707 26.8533 231.707 25.04C231.707 22.3733 231.734 20.4533 231.787 19.28H235.228L238.348 19.2H242.828L247.468 19.12C255.414 19.12 261.894 19.4133 266.908 20H267.948ZM306.056 68.88C306.056 71.6 305.763 74.0267 305.176 76.16C302.83 76.16 299.363 76.2133 294.776 76.32L284.296 76.4C279.55 76.4 274.803 76.24 270.056 75.92C270.11 74.2133 270.03 67.5733 269.816 56C269.656 49.44 269.576 44.4 269.576 40.88C269.576 33.5733 269.763 26.7733 270.136 20.48L277.176 20.24C285.07 19.92 291.096 19.76 295.256 19.76C298.83 19.76 302.296 19.8933 305.656 20.16C305.87 21.28 305.976 22.5867 305.976 24.08C305.976 24.88 305.923 26.1867 305.816 28C305.71 29.7067 305.656 31.04 305.656 32C302.456 32.6933 298.883 33.04 294.936 33.04L284.536 33.12C284.27 35.6267 284.136 37.7067 284.136 39.36C284.136 40.64 284.296 41.76 284.616 42.72L289.896 42.08C290.643 42.08 291.763 42.1333 293.256 42.24L294.296 42.32C294.563 43.92 294.696 45.6533 294.696 47.52L294.536 53.92C292.83 54.4 290.536 54.64 287.656 54.64L285.576 54.56C285.203 54.56 284.963 54.6133 284.856 54.72L284.536 58.88C284.536 61.0667 284.643 62.88 284.856 64.32C287.63 64.32 290.323 64.4 292.936 64.56C293.843 64.6133 294.963 64.6667 296.296 64.72C297.63 64.7733 299.203 64.8 301.016 64.8L305.896 64.64C306.003 67.0933 306.056 68.5067 306.056 68.88ZM338.572 26.4C341.079 30.3467 342.732 34.32 343.532 38.32V38.24C343.959 39.5733 344.225 41.3067 344.332 43.44C344.225 45.04 344.172 46.24 344.172 47.04L344.092 48.32C344.092 48.6933 344.039 49.9467 343.932 52.08C343.825 54.2133 343.559 56.32 343.132 58.4C342.119 61.3867 340.705 64.32 338.892 67.2C337.132 70.0267 335.025 72.96 332.572 76C328.092 76.1067 324.412 76.16 321.532 76.16L315.772 76.24L309.532 76.32C308.572 69.3333 308.092 60.5333 308.092 49.92C308.092 45.28 308.119 41.8133 308.172 39.52C308.225 37.44 308.252 33.8667 308.252 28.8C308.252 27.52 308.199 25.6 308.092 23.04L308.012 20.64L308.572 20.56C311.399 19.8133 314.679 19.44 318.412 19.44L320.492 19.52H322.652C323.345 19.5733 324.412 19.6 325.852 19.6C327.292 19.6 328.359 19.5733 329.052 19.52C331.025 20.0533 332.919 21.0133 334.732 22.4C336.545 23.7333 337.985 25.28 339.052 27.04L338.572 26.4ZM331.292 48.56C331.292 47.6 331.185 46.6667 330.972 45.76C330.545 43.52 330.039 41.7067 329.452 40.32C328.865 38.88 327.959 37.9467 326.732 37.52H326.892C325.612 37.4133 324.652 37.36 324.012 37.36C322.945 37.36 322.252 37.4133 321.932 37.52C322.039 39.44 322.092 41.2533 322.092 42.96V45.04L322.012 47.2C321.959 48.4267 321.932 50.2667 321.932 52.72C321.932 55.0667 321.905 56.8533 321.852 58.08C322.652 58.4 323.212 58.56 323.532 58.56H324.572C325.425 58.56 326.039 58.48 326.412 58.32C327.265 58.1067 328.225 57.1467 329.292 55.44C330.625 53.4133 331.292 51.12 331.292 48.56Z" fill="white"/>
<rect x="1" y="85" width="352" height="15" fill="#BC2726"/>
</svg>
