<?xml version="1.0" standalone="no"?>
<!DOCTYPE svg PUBLIC "-//W3C//DTD SVG 20010904//EN"
 "http://www.w3.org/TR/2001/REC-SVG-20010904/DTD/svg10.dtd">
<svg version="1.0" xmlns="http://www.w3.org/2000/svg"
 width="700.000000pt" height="700.000000pt" viewBox="0 0 700.000000 700.000000"
 preserveAspectRatio="xMidYMid meet">
<metadata>
Created by potrace 1.11, written by Peter Selinger 2001-2013
</metadata>
<g transform="translate(0.000000,700.000000) scale(0.100000,-0.100000)"
fill="#000000" stroke="none">
<path d="M4260 6992 c-70 -6 -198 -57 -247 -99 -12 -10 -30 -25 -40 -34 -23
-20 -73 -77 -73 -84 0 -3 -10 -22 -23 -43 -13 -20 -32 -66 -42 -102 -17 -59
-19 -114 -20 -645 -2 -637 -1 -616 -65 -709 -62 -92 -163 -148 -245 -139 -138
15 -242 147 -286 365 -29 142 -67 218 -148 298 -74 72 -151 115 -245 135 -87
18 -413 19 -497 1 -189 -41 -336 -183 -384 -371 -13 -51 -15 -204 -15 -1100 0
-1146 3 -1096 -62 -1217 -35 -65 -112 -141 -167 -164 -143 -60 -317 47 -382
233 -11 32 -22 72 -24 88 -2 17 -4 499 -5 1071 0 1136 2 1079 -58 1203 -33 69
-132 171 -199 205 -118 59 -129 61 -383 61 -204 0 -243 -3 -295 -19 -163 -53
-284 -175 -334 -339 -21 -68 -21 -78 -21 -1420 0 -1193 2 -1359 16 -1411 47
-179 182 -316 355 -361 73 -19 378 -27 488 -12 171 22 295 115 387 289 56 106
102 146 204 179 75 23 188 28 246 9 94 -31 194 -124 222 -209 9 -24 12 -359
12 -1221 0 -1306 -3 -1235 62 -1314 61 -74 139 -107 263 -112 195 -7 409 83
592 249 44 40 150 173 182 228 111 190 168 382 186 629 2 30 4 841 5 1801 0
1910 -3 1796 57 1893 74 119 211 181 317 144 89 -32 177 -134 207 -241 9 -30
13 -210 14 -612 2 -507 4 -576 19 -620 63 -186 192 -306 373 -348 76 -18 458
-16 523 2 176 50 303 174 355 347 17 55 18 138 20 1304 1 685 5 1255 9 1267 4
12 9 31 11 43 7 38 47 108 81 143 47 48 98 70 171 75 54 4 68 1 123 -29 34
-18 77 -51 96 -73 42 -49 90 -144 103 -206 6 -25 10 -225 11 -448 0 -233 5
-423 11 -451 34 -159 180 -224 489 -215 193 5 355 72 489 204 166 162 263 344
289 545 5 39 10 260 11 492 2 453 -2 499 -52 598 -61 123 -181 220 -314 255
-92 25 -458 27 -548 4 -141 -37 -253 -129 -325 -268 -25 -48 -58 -100 -75
-115 -70 -68 -173 -100 -302 -96 -158 4 -251 60 -318 190 -75 145 -204 254
-341 285 -44 11 -379 19 -464 12z"/>
</g>
</svg>
